<?xml version="1.0" encoding="UTF-8"?>
<svg width="308px" height="51px" viewBox="0 0 308 51" version="1.1" xmlns="http://www.w3.org/2000/svg" xmlns:xlink="http://www.w3.org/1999/xlink">
    <!-- Generator: Sketch 49.3 (51167) - http://www.bohemiancoding.com/sketch -->
    <title>2018/04/22(Sun) 技術書典</title>
    <desc>Created with Sketch.</desc>
    <defs></defs>
    <g id="Page-1" stroke="none" stroke-width="1" fill="none" fill-rule="evenodd">
        <g id="Artboard" transform="translate(-208.000000, -366.000000)" fill="#FFFFFF">
            <path d="M210.196,380.938 L218.278,380.938 C218.692,380.938 218.782,381.262 218.782,381.46 C218.782,381.784 218.602,382 218.278,382 L210.7,382 C209.908,382 209.152,381.964 209.152,381.1 C209.152,380.506 209.35,380.344 210.448,379.408 C211.204,378.742 213.634,376.672 215.326,374.8 C216.424,373.576 216.802,372.568 216.802,371.56 C216.802,369.994 215.65,368.698 213.958,368.698 C212.788,368.698 211.654,369.256 210.952,370.048 C210.628,370.426 210.556,370.516 210.304,370.516 C210.034,370.516 209.764,370.264 209.764,369.958 C209.764,369.472 211.42,367.636 213.886,367.636 C215.812,367.636 217.99,368.824 217.99,371.524 C217.99,373.108 217.288,374.134 216.424,375.16 C214.912,376.924 211.618,379.732 210.196,380.938 Z M225.82,382.288 C221.05,382.288 221.032,376.51 221.032,374.962 C221.032,373.396 221.05,367.636 225.82,367.636 C230.554,367.636 230.608,373.342 230.608,374.962 C230.608,376.6 230.554,382.288 225.82,382.288 Z M225.82,381.226 C229.168,381.226 229.438,377.104 229.438,374.962 C229.438,372.91 229.204,368.698 225.82,368.698 C222.49,368.698 222.202,372.784 222.202,374.962 C222.202,377.05 222.454,381.226 225.82,381.226 Z M237.592,369.238 L235.378,370.75 C235.27,370.822 235.144,370.894 235,370.894 C234.658,370.894 234.46,370.534 234.46,370.3 C234.46,370.066 234.676,369.922 234.838,369.814 L237.502,368.014 C237.88,367.762 238.042,367.636 238.276,367.636 C238.798,367.636 238.798,368.104 238.798,368.518 L238.798,381.712 C238.798,382.18 238.42,382.288 238.204,382.288 C237.844,382.288 237.592,382.09 237.592,381.712 L237.592,369.238 Z M247.384,374.08 C246.214,373.576 245.584,372.28 245.584,371.146 C245.584,369.58 246.7,367.636 249.58,367.636 C252.442,367.636 253.576,369.544 253.576,371.146 C253.576,372.28 252.982,373.504 251.794,374.08 C253.576,374.818 254.422,376.312 254.422,377.914 C254.422,380.578 252.19,382.288 249.58,382.288 C246.952,382.288 244.738,380.578 244.738,377.914 C244.738,377.14 244.9,375.16 247.384,374.08 Z M249.58,373.684 C251.434,373.684 252.406,372.568 252.406,371.2 C252.406,369.832 251.47,368.68 249.58,368.68 C247.672,368.68 246.754,369.85 246.754,371.2 C246.754,372.604 247.744,373.684 249.58,373.684 Z M249.58,381.226 C251.776,381.226 253.234,379.714 253.234,377.878 C253.234,376.528 252.352,374.746 249.58,374.746 C246.808,374.746 245.926,376.528 245.926,377.878 C245.926,379.714 247.384,381.226 249.58,381.226 Z M256.33,381.514 L262.828,368.032 C262.936,367.816 263.008,367.636 263.278,367.636 C263.53,367.636 263.818,367.834 263.818,368.086 C263.818,368.212 263.764,368.338 263.71,368.428 L257.212,381.91 C257.122,382.108 257.032,382.288 256.762,382.288 C256.51,382.288 256.222,382.09 256.222,381.838 C256.222,381.712 256.276,381.604 256.33,381.514 Z M270.46,382.288 C265.69,382.288 265.672,376.51 265.672,374.962 C265.672,373.396 265.69,367.636 270.46,367.636 C275.194,367.636 275.248,373.342 275.248,374.962 C275.248,376.6 275.194,382.288 270.46,382.288 Z M270.46,381.226 C273.808,381.226 274.078,377.104 274.078,374.962 C274.078,372.91 273.844,368.698 270.46,368.698 C267.13,368.698 266.842,372.784 266.842,374.962 C266.842,377.05 267.094,381.226 270.46,381.226 Z M285.364,377.698 L287.002,377.698 C287.416,377.698 287.506,378.004 287.506,378.202 C287.506,378.526 287.326,378.724 287.002,378.724 L285.364,378.724 L285.364,381.712 C285.364,382.198 285.004,382.288 284.788,382.288 C284.446,382.288 284.194,382.09 284.194,381.712 L284.194,378.724 L278.398,378.724 C277.822,378.724 277.21,378.724 277.21,378.166 C277.21,377.914 277.318,377.77 277.696,377.212 L283.87,368.284 C284.086,367.96 284.302,367.636 284.77,367.636 C285.364,367.636 285.364,368.14 285.364,368.554 L285.364,377.698 Z M278.614,377.698 L284.194,377.698 L284.194,369.58 L278.614,377.698 Z M289.09,381.514 L295.588,368.032 C295.696,367.816 295.768,367.636 296.038,367.636 C296.29,367.636 296.578,367.834 296.578,368.086 C296.578,368.212 296.524,368.338 296.47,368.428 L289.972,381.91 C289.882,382.108 289.792,382.288 289.522,382.288 C289.27,382.288 288.982,382.09 288.982,381.838 C288.982,381.712 289.036,381.604 289.09,381.514 Z M299.476,380.938 L307.558,380.938 C307.972,380.938 308.062,381.262 308.062,381.46 C308.062,381.784 307.882,382 307.558,382 L299.98,382 C299.188,382 298.432,381.964 298.432,381.1 C298.432,380.506 298.63,380.344 299.728,379.408 C300.484,378.742 302.914,376.672 304.606,374.8 C305.704,373.576 306.082,372.568 306.082,371.56 C306.082,369.994 304.93,368.698 303.238,368.698 C302.068,368.698 300.934,369.256 300.232,370.048 C299.908,370.426 299.836,370.516 299.584,370.516 C299.314,370.516 299.044,370.264 299.044,369.958 C299.044,369.472 300.7,367.636 303.166,367.636 C305.092,367.636 307.27,368.824 307.27,371.524 C307.27,373.108 306.568,374.134 305.704,375.16 C304.192,376.924 300.898,379.732 299.476,380.938 Z M311.356,380.938 L319.438,380.938 C319.852,380.938 319.942,381.262 319.942,381.46 C319.942,381.784 319.762,382 319.438,382 L311.86,382 C311.068,382 310.312,381.964 310.312,381.1 C310.312,380.506 310.51,380.344 311.608,379.408 C312.364,378.742 314.794,376.672 316.486,374.8 C317.584,373.576 317.962,372.568 317.962,371.56 C317.962,369.994 316.81,368.698 315.118,368.698 C313.948,368.698 312.814,369.256 312.112,370.048 C311.788,370.426 311.716,370.516 311.464,370.516 C311.194,370.516 310.924,370.264 310.924,369.958 C310.924,369.472 312.58,367.636 315.046,367.636 C316.972,367.636 319.15,368.824 319.15,371.524 C319.15,373.108 318.448,374.134 317.584,375.16 C316.072,376.924 312.778,379.732 311.356,380.938 Z M324.172,376.024 C324.172,380.038 326.458,383.26 326.494,383.296 C326.944,383.926 326.998,383.998 326.998,384.106 C326.998,384.268 326.818,384.412 326.656,384.412 C326.386,384.412 326.152,384.304 325.648,383.602 C323.218,380.2 322.948,377.14 322.948,376.024 C322.948,374.908 323.218,371.848 325.648,368.464 C326.17,367.726 326.404,367.636 326.638,367.636 C326.854,367.636 326.998,367.798 326.998,367.942 C326.998,368.068 326.944,368.14 326.494,368.752 C326.458,368.806 324.172,372.01 324.172,376.024 Z M328.906,380.398 C328.996,380.398 329.14,380.47 329.5,380.632 C330.4,381.064 331.264,381.226 332.092,381.226 C333.766,381.226 335.746,380.506 335.746,378.328 C335.746,376.33 334.252,375.808 332.686,375.25 C331.012,374.674 328.87,373.936 328.87,371.452 C328.87,369.4 330.418,367.636 333.028,367.636 C333.946,367.636 334.828,367.852 335.674,368.212 C335.836,368.284 336.106,368.41 336.106,368.752 C336.106,369.04 335.854,369.292 335.566,369.292 C335.458,369.292 335.314,369.238 334.99,369.094 C334.594,368.932 333.874,368.698 333.01,368.698 C331.048,368.698 330.058,370.066 330.058,371.416 C330.058,373.18 331.516,373.684 333.1,374.242 C334.828,374.854 336.934,375.61 336.934,378.292 C336.934,380.92 334.756,382.288 332.128,382.288 C330.436,382.288 329.302,381.748 328.87,381.55 C328.618,381.424 328.366,381.262 328.366,380.956 C328.366,380.668 328.582,380.398 328.906,380.398 Z M339.598,377.5 L339.598,371.74 C339.598,371.29 339.958,371.2 340.156,371.2 C340.48,371.2 340.714,371.398 340.714,371.74 L340.714,377.374 C340.714,379.138 340.714,381.28 343.342,381.28 C344.998,381.28 345.826,380.254 346.132,379.786 C346.618,378.994 346.618,378.022 346.618,377.374 L346.618,371.74 C346.618,371.29 346.978,371.2 347.176,371.2 C347.5,371.2 347.734,371.398 347.734,371.74 L347.734,381.748 C347.734,382.144 347.428,382.288 347.176,382.288 C346.834,382.288 346.618,382.09 346.618,381.748 L346.618,380.47 C345.376,382.288 343.792,382.288 343.234,382.288 C341.506,382.288 340.498,381.424 340.084,380.668 C339.652,379.858 339.598,379.12 339.598,377.5 Z M358.894,375.988 L358.894,381.748 C358.894,382.198 358.534,382.288 358.336,382.288 C358.012,382.288 357.778,382.09 357.778,381.748 L357.778,376.114 C357.778,374.35 357.778,372.208 355.15,372.208 C353.494,372.208 352.666,373.234 352.36,373.702 C351.874,374.494 351.874,375.466 351.874,376.114 L351.874,381.748 C351.874,382.198 351.514,382.288 351.316,382.288 C350.992,382.288 350.758,382.09 350.758,381.748 L350.758,371.74 C350.758,371.344 351.064,371.2 351.316,371.2 C351.658,371.2 351.874,371.398 351.874,371.74 L351.874,373.018 C353.116,371.2 354.7,371.2 355.258,371.2 C356.986,371.2 357.994,372.064 358.408,372.82 C358.84,373.63 358.894,374.368 358.894,375.988 Z M363.934,376.024 C363.934,372.01 361.648,368.806 361.612,368.752 C361.162,368.14 361.108,368.068 361.108,367.942 C361.108,367.78 361.288,367.636 361.45,367.636 C361.72,367.636 361.954,367.744 362.458,368.464 C364.888,371.848 365.158,374.908 365.158,376.024 C365.158,377.14 364.888,380.2 362.458,383.602 C361.936,384.322 361.702,384.412 361.468,384.412 C361.252,384.412 361.108,384.25 361.108,384.106 C361.108,383.998 361.162,383.926 361.612,383.296 C361.648,383.26 363.934,380.038 363.934,376.024 Z M387.496,374.278 L380.98,374.278 C380.836,374.278 380.458,374.278 380.458,373.828 C380.458,373.378 380.836,373.378 380.98,373.378 L384.544,373.378 L384.544,370.21 L380.494,370.21 C380.35,370.21 379.99,370.21 379.99,369.76 C379.99,369.292 380.35,369.292 380.494,369.292 L384.544,369.292 L384.544,367.222 C384.544,367.06 384.544,366.7 385.048,366.7 C385.516,366.7 385.552,367.006 385.552,367.222 L385.552,369.292 L389.764,369.292 C389.908,369.292 390.286,369.292 390.286,369.742 C390.286,370.21 389.926,370.21 389.764,370.21 L385.552,370.21 L385.552,373.378 L387.406,373.378 C388.036,373.378 388.972,373.378 388.972,374.404 C388.972,375.034 388.306,377.392 385.768,380.02 C386.902,381.028 388.108,381.766 389.872,382.36 C390.052,382.414 390.304,382.504 390.304,382.846 C390.304,383.152 390.07,383.458 389.728,383.458 C389.674,383.458 387.424,382.99 384.976,380.74 C382.636,382.702 379.828,383.476 379.594,383.476 C379.252,383.476 379.072,383.17 379.072,382.9 C379.072,382.576 379.27,382.486 379.558,382.396 C382.24,381.604 383.626,380.56 384.292,380.038 C382.456,377.986 381.646,375.538 381.646,375.322 C381.646,375.07 381.916,374.854 382.186,374.854 C382.474,374.854 382.564,375.034 382.654,375.268 C382.978,376.114 383.806,377.932 385.102,379.336 C387.082,377.41 387.964,375.052 387.964,374.656 C387.964,374.278 387.622,374.278 387.496,374.278 Z M377.29,376.492 L377.29,381.784 C377.29,382.144 377.29,382.936 376.588,383.17 C376.282,383.26 376.246,383.26 374.644,383.26 C374.104,383.26 374.086,382.81 374.086,382.684 C374.086,382.198 374.428,382.198 374.59,382.198 C374.77,382.198 375.562,382.234 375.724,382.216 C376.138,382.18 376.282,381.928 376.282,381.532 L376.282,376.87 C375.94,376.996 374.284,377.608 374.086,377.608 C373.798,377.608 373.636,377.338 373.636,377.086 C373.636,376.762 373.87,376.672 374.05,376.618 C375.112,376.276 375.49,376.132 376.282,375.862 L376.282,371.29 L374.266,371.29 C374.14,371.29 373.762,371.29 373.762,370.84 C373.762,370.39 374.122,370.39 374.266,370.39 L376.282,370.39 L376.282,367.258 C376.282,367.132 376.282,366.736 376.768,366.736 C377.29,366.736 377.29,367.114 377.29,367.258 L377.29,370.39 L379.198,370.39 C379.342,370.39 379.72,370.39 379.72,370.84 C379.72,371.29 379.342,371.29 379.198,371.29 L377.29,371.29 L377.29,375.502 C377.722,375.34 378.28,375.124 379.072,374.764 C379.198,374.692 379.27,374.692 379.324,374.692 C379.54,374.692 379.702,374.908 379.702,375.142 C379.702,375.376 379.558,375.466 379.468,375.52 C379.378,375.592 378.658,375.97 377.29,376.492 Z M400.114,370.696 L402.67,370.696 C402.814,370.696 403.174,370.696 403.174,371.128 C403.174,371.596 402.814,371.596 402.67,371.596 L400.114,371.596 L400.114,383.008 C400.114,383.224 400.078,383.53 399.628,383.53 C399.196,383.53 399.142,383.26 399.142,383.008 L399.142,371.596 L396.748,371.596 C396.604,371.596 396.226,371.596 396.226,371.146 C396.226,370.696 396.604,370.696 396.748,370.696 L399.142,370.696 L399.142,367.33 C399.142,367.132 399.16,366.808 399.628,366.808 C400.024,366.808 400.114,367.042 400.114,367.33 L400.114,370.696 Z M397.324,373.432 C397.702,373.432 397.81,373.648 397.81,373.972 C397.81,374.746 397.54,379.138 396.658,381.082 C396.604,381.19 396.496,381.334 396.28,381.334 C395.992,381.334 395.74,381.082 395.74,380.848 C395.74,380.722 396.028,379.93 396.082,379.75 C396.622,377.86 396.82,375.214 396.838,374.026 C396.838,373.666 396.91,373.45 397.324,373.432 Z M393.724,383.008 L393.724,375.106 C393.382,375.592 392.572,376.672 392.158,376.69 C391.87,376.69 391.672,376.366 391.672,376.096 C391.672,375.898 391.78,375.79 391.942,375.628 C393.4,374.17 394.318,372.586 394.948,371.092 C395.02,370.948 395.128,370.678 395.38,370.678 C395.596,370.678 395.884,370.858 395.884,371.11 C395.884,371.326 395.506,372.262 394.678,373.648 L394.678,383.008 C394.678,383.224 394.66,383.53 394.21,383.53 C393.742,383.53 393.724,383.188 393.724,383.008 Z M395.092,366.826 C395.254,366.826 395.65,366.988 395.65,367.294 C395.65,367.888 393.112,371.128 392.428,371.128 C392.176,371.128 391.942,370.84 391.942,370.552 C391.942,370.336 392.086,370.228 392.248,370.102 C392.896,369.616 393.94,368.554 394.678,367.132 C394.75,367.006 394.822,366.826 395.092,366.826 Z M407.584,368.608 L403.894,368.608 C403.768,368.608 403.39,368.608 403.39,368.14 C403.39,367.69 403.768,367.69 403.894,367.69 L407.584,367.69 C407.764,367.69 408.088,367.69 408.088,368.14 C408.088,368.59 407.782,368.608 407.584,368.608 Z M402.094,373.486 C402.436,373.486 402.508,373.774 402.526,373.882 C402.922,375.736 403.246,378.994 403.246,380.308 C403.246,380.434 403.246,380.866 402.688,380.866 C402.22,380.866 402.22,380.506 402.22,380.344 C402.148,377.968 401.86,375.736 401.842,375.538 C401.806,375.268 401.59,374.026 401.59,373.9 C401.59,373.828 401.626,373.486 402.094,373.486 Z M401.428,367.132 C401.644,367.132 401.734,367.186 402.112,367.762 C402.472,368.302 403.012,369.094 403.012,369.346 C403.012,369.634 402.688,369.796 402.526,369.796 C402.292,369.796 402.256,369.742 401.95,369.22 C401.68,368.77 401.626,368.698 401.158,367.996 C400.996,367.744 400.96,367.69 400.96,367.564 C400.96,367.294 401.248,367.132 401.428,367.132 Z M405.622,373.342 L403.534,373.342 C403.39,373.342 403.012,373.342 403.012,372.874 C403.012,372.406 403.39,372.406 403.534,372.406 L407.854,372.406 C407.998,372.406 408.358,372.406 408.358,372.874 C408.358,373.342 407.998,373.342 407.854,373.342 L406.594,373.342 L406.594,381.784 C406.594,382.468 406.486,383.098 405.586,383.224 C405.406,383.26 405.388,383.26 403.678,383.26 C403.408,383.26 403.048,383.26 403.048,382.648 C403.048,382.36 403.246,382.216 403.552,382.216 C403.768,382.216 404.74,382.252 404.92,382.252 C405.406,382.252 405.622,382.018 405.622,381.568 L405.622,373.342 Z M424.432,369.85 L425.908,369.85 C426.052,369.85 426.376,369.886 426.376,370.246 C426.376,370.588 426.07,370.642 425.908,370.642 L424.432,370.642 L424.432,371.182 C424.432,372.244 424.09,372.64 422.974,372.64 L418.402,372.64 L418.402,373.828 L424.612,373.828 C424.774,373.828 425.098,373.882 425.098,374.224 C425.098,374.584 424.774,374.62 424.612,374.62 L418.402,374.62 L418.402,375.844 L425.89,375.844 C426.088,375.844 426.376,375.916 426.376,376.24 C426.376,376.6 426.052,376.636 425.89,376.636 L410.284,376.636 C410.14,376.636 409.816,376.6 409.816,376.24 C409.816,375.898 410.086,375.844 410.284,375.844 L417.448,375.844 L417.448,374.62 L411.544,374.62 C411.4,374.62 411.076,374.584 411.076,374.224 C411.076,373.882 411.364,373.828 411.544,373.828 L417.448,373.828 L417.448,372.64 L411.832,372.64 C411.688,372.64 411.346,372.622 411.346,372.244 C411.346,371.902 411.598,371.83 411.832,371.83 L417.448,371.83 L417.448,370.642 L410.284,370.642 C410.086,370.642 409.816,370.588 409.816,370.246 C409.816,369.922 410.032,369.85 410.284,369.85 L417.448,369.85 L417.448,368.626 L411.832,368.626 C411.616,368.626 411.346,368.572 411.346,368.23 C411.346,367.942 411.526,367.816 411.832,367.816 L417.448,367.816 L417.448,367.294 C417.448,367.168 417.448,366.772 417.916,366.772 C418.402,366.772 418.402,367.168 418.402,367.294 L418.402,367.816 L422.974,367.816 C424.054,367.816 424.432,368.194 424.432,369.292 L424.432,369.85 Z M418.402,369.85 L423.496,369.85 L423.496,369.328 C423.496,368.896 423.298,368.626 422.812,368.626 L418.402,368.626 L418.402,369.85 Z M423.496,371.146 L423.496,370.642 L418.402,370.642 L418.402,371.83 L422.812,371.83 C423.28,371.83 423.496,371.596 423.496,371.146 Z M424.288,379.336 L424.288,381.658 C424.288,382.72 423.928,383.116 422.812,383.116 L413.308,383.116 C412.228,383.116 411.85,382.738 411.85,381.658 L411.85,379.336 C411.85,378.256 412.192,377.86 413.308,377.86 L422.812,377.86 C423.91,377.86 424.288,378.238 424.288,379.336 Z M412.84,380.092 L423.298,380.092 L423.298,379.336 C423.298,378.904 423.082,378.652 422.614,378.652 L413.524,378.652 C413.056,378.652 412.84,378.886 412.84,379.336 L412.84,380.092 Z M423.298,381.64 L423.298,380.83 L412.84,380.83 L412.84,381.64 C412.84,382.09 413.038,382.324 413.524,382.324 L422.614,382.324 C423.064,382.324 423.298,382.108 423.298,381.64 Z M433.414,368.842 L433.414,367.312 C433.414,367.096 433.45,366.808 433.882,366.808 C434.278,366.808 434.368,367.006 434.368,367.312 L434.368,368.842 L437.716,368.842 L437.716,367.312 C437.716,367.114 437.734,366.808 438.184,366.808 C438.562,366.808 438.67,367.006 438.67,367.312 L438.67,368.842 L441.442,368.842 C442.54,368.842 442.918,369.202 442.918,370.3 L442.918,377.77 L443.89,377.77 C444.016,377.77 444.412,377.77 444.412,378.22 C444.412,378.67 444.016,378.67 443.89,378.67 L428.248,378.67 C428.104,378.67 427.744,378.67 427.744,378.238 C427.744,377.77 428.104,377.77 428.248,377.77 L429.202,377.77 L429.202,370.3 C429.202,369.238 429.544,368.842 430.66,368.842 L433.414,368.842 Z M437.716,373.198 L437.716,369.742 L434.368,369.742 L434.368,373.198 L437.716,373.198 Z M437.716,377.77 L437.716,374.044 L434.368,374.044 L434.368,377.77 L437.716,377.77 Z M433.414,373.198 L433.414,369.742 L430.876,369.742 C430.408,369.742 430.192,369.958 430.192,370.426 L430.192,373.198 L433.414,373.198 Z M433.414,377.77 L433.414,374.044 L430.192,374.044 L430.192,377.77 L433.414,377.77 Z M441.244,369.742 L438.67,369.742 L438.67,373.198 L441.928,373.198 L441.928,370.426 C441.928,369.994 441.748,369.742 441.244,369.742 Z M441.928,377.77 L441.928,374.044 L438.67,374.044 L438.67,377.77 L441.928,377.77 Z M432.82,379.174 C433.144,379.174 433.36,379.462 433.36,379.66 C433.36,380.308 429.256,383.368 428.608,383.368 C428.302,383.368 428.086,383.026 428.086,382.828 C428.086,382.576 428.248,382.486 428.392,382.396 C429.526,381.766 431.29,380.596 432.424,379.39 C432.55,379.264 432.676,379.174 432.82,379.174 Z M439.318,379.174 C439.426,379.192 439.534,379.228 439.66,379.372 C441.226,380.956 443.098,382.054 443.71,382.396 C443.836,382.468 444.016,382.576 444.016,382.81 C444.016,383.026 443.8,383.368 443.494,383.368 C443.026,383.368 441.136,381.964 440.902,381.784 C440.344,381.37 438.742,380.074 438.742,379.66 C438.742,379.408 439.048,379.138 439.318,379.174 Z M451,382.288 C446.23,382.288 446.212,376.51 446.212,374.962 C446.212,373.396 446.23,367.636 451,367.636 C455.734,367.636 455.788,373.342 455.788,374.962 C455.788,376.6 455.734,382.288 451,382.288 Z M451,381.226 C454.348,381.226 454.618,377.104 454.618,374.962 C454.618,372.91 454.384,368.698 451,368.698 C447.67,368.698 447.382,372.784 447.382,374.962 C447.382,377.05 447.634,381.226 451,381.226 Z M465.904,377.698 L467.542,377.698 C467.956,377.698 468.046,378.004 468.046,378.202 C468.046,378.526 467.866,378.724 467.542,378.724 L465.904,378.724 L465.904,381.712 C465.904,382.198 465.544,382.288 465.328,382.288 C464.986,382.288 464.734,382.09 464.734,381.712 L464.734,378.724 L458.938,378.724 C458.362,378.724 457.75,378.724 457.75,378.166 C457.75,377.914 457.858,377.77 458.236,377.212 L464.41,368.284 C464.626,367.96 464.842,367.636 465.31,367.636 C465.904,367.636 465.904,368.14 465.904,368.554 L465.904,377.698 Z M459.154,377.698 L464.734,377.698 L464.734,369.58 L459.154,377.698 Z M477.226,372.046 L480.916,371.542 C481.168,370.444 481.366,369.346 481.528,368.23 C481.6,367.654 481.636,367.402 482.104,367.402 C482.356,367.402 482.68,367.528 482.68,367.87 C482.68,368.302 482.086,371.02 481.996,371.434 C482.338,371.398 482.86,371.38 483.22,371.38 C487,371.38 487.18,373.576 487.18,376.132 C487.18,381.172 485.902,382.468 483.4,382.468 C481.672,382.468 481.546,382.108 481.546,381.784 C481.546,381.478 481.762,381.298 481.978,381.298 C482.014,381.298 482.356,381.352 482.428,381.37 C482.716,381.424 483.022,381.46 483.4,381.46 C485.074,381.46 486.154,380.83 486.154,375.988 C486.154,374.044 486.154,372.334 483.346,372.334 C482.752,372.334 482.14,372.388 481.762,372.424 C481.492,373.504 480.52,377.338 478.81,380.65 C478.378,381.496 478.018,382.054 477.928,382.18 C477.82,382.324 477.694,382.486 477.496,382.486 C477.388,382.486 476.902,382.414 476.902,381.982 C476.902,381.748 476.938,381.694 477.334,381.064 C478.756,378.76 479.926,375.646 480.7,372.532 C480.052,372.622 476.668,373.144 476.65,373.144 C476.308,373.144 476.2,372.838 476.2,372.604 C476.2,372.172 476.434,372.154 477.226,372.046 Z M487.918,369.4 C488.548,369.4 489.772,371.272 490.276,372.226 C491.428,374.404 491.68,376.438 491.68,376.834 C491.68,377.374 491.23,377.41 491.104,377.41 C490.672,377.41 490.636,377.176 490.564,376.564 C490.348,374.998 489.538,372.388 487.792,370.426 C487.486,370.102 487.414,370.012 487.414,369.832 C487.414,369.598 487.63,369.4 487.918,369.4 Z M495.01,380.938 L503.092,380.938 C503.506,380.938 503.596,381.262 503.596,381.46 C503.596,381.784 503.416,382 503.092,382 L495.514,382 C494.722,382 493.966,381.964 493.966,381.1 C493.966,380.506 494.164,380.344 495.262,379.408 C496.018,378.742 498.448,376.672 500.14,374.8 C501.238,373.576 501.616,372.568 501.616,371.56 C501.616,369.994 500.464,368.698 498.772,368.698 C497.602,368.698 496.468,369.256 495.766,370.048 C495.442,370.426 495.37,370.516 495.118,370.516 C494.848,370.516 494.578,370.264 494.578,369.958 C494.578,369.472 496.234,367.636 498.7,367.636 C500.626,367.636 502.804,368.824 502.804,371.524 C502.804,373.108 502.102,374.134 501.238,375.16 C499.726,376.924 496.432,379.732 495.01,380.938 Z M514.378,368.986 L506.116,368.986 C505.684,368.986 505.594,368.662 505.594,368.464 C505.594,368.14 505.774,367.924 506.116,367.924 L514.756,367.924 C515.17,367.924 515.674,367.924 515.674,368.518 C515.674,368.914 515.476,369.238 515.35,369.454 L508.132,381.91 C508.006,382.108 507.898,382.288 507.61,382.288 C507.286,382.288 507.016,382.018 507.016,381.748 C507.016,381.586 507.088,381.478 507.178,381.316 L514.378,368.986 Z M211.024,402.352 L213.616,402.352 C213.598,402.28 213.58,402.244 213.562,402.172 C213.238,401.02 213.04,400.354 212.752,399.436 L209.224,399.436 C208.918,399.436 208.72,399.364 208.72,398.986 C208.72,398.59 208.954,398.536 209.224,398.536 L216.478,398.536 L216.478,397.258 C216.478,397.024 216.514,396.736 216.982,396.736 C217.486,396.736 217.486,397.078 217.486,397.258 L217.486,398.536 L224.686,398.536 C225.046,398.536 225.19,398.68 225.19,398.986 C225.19,399.346 224.992,399.436 224.686,399.436 L221.284,399.436 C221.032,400.408 220.762,401.38 220.456,402.352 L222.94,402.352 C224.29,402.352 224.74,402.802 224.74,404.152 L224.74,405.916 C224.74,406.114 224.722,406.438 224.236,406.438 C223.732,406.438 223.732,406.078 223.732,405.916 L223.732,404.188 C223.732,403.558 223.444,403.234 222.796,403.234 L217.486,403.234 L217.486,405.736 L221.05,405.736 C222.4,405.736 222.868,406.204 222.868,407.536 L222.868,410.398 C222.868,410.794 222.868,411.586 222.274,411.946 C221.86,412.198 221.644,412.198 219.934,412.198 C219.7,412.198 219.304,412.198 219.304,411.694 C219.304,411.244 219.61,411.244 219.772,411.244 C219.934,411.244 220.726,411.262 220.888,411.262 C221.464,411.262 221.86,411.064 221.86,410.326 L221.86,407.572 C221.86,406.942 221.572,406.618 220.924,406.618 L217.486,406.618 L217.486,413.044 C217.486,413.26 217.45,413.566 216.982,413.566 C216.496,413.566 216.496,413.206 216.496,413.044 L216.496,406.618 L213.004,406.618 C212.374,406.618 212.068,406.924 212.068,407.572 L212.068,411.874 C212.068,412.198 211.96,412.396 211.564,412.396 C211.114,412.396 211.114,412 211.114,411.874 L211.114,407.536 C211.114,406.186 211.582,405.736 212.914,405.736 L216.496,405.736 L216.496,403.234 L211.15,403.234 C210.502,403.234 210.214,403.54 210.214,404.188 L210.214,405.916 C210.214,406.186 210.16,406.438 209.71,406.438 C209.224,406.438 209.206,406.114 209.206,405.916 L209.206,404.152 C209.206,402.802 209.692,402.352 211.024,402.352 Z M214.57,402.352 L219.556,402.352 C219.898,401.2 220.096,400.48 220.312,399.436 L213.724,399.436 C213.976,400.246 214.336,401.542 214.57,402.352 Z M233.632,402.55 L235.756,402.55 C235.864,402.55 236.278,402.568 236.278,402.982 C236.278,403.432 235.864,403.432 235.756,403.432 L232.822,403.432 C232.48,403.756 231.724,404.53 230.518,405.394 L233.704,405.394 C234.784,405.394 235.162,405.772 235.162,406.87 L235.162,411.64 C235.162,412.702 234.802,413.098 233.704,413.098 L229.924,413.098 C228.844,413.098 228.466,412.72 228.466,411.64 L228.466,406.744 C228.142,406.924 227.35,407.374 227.098,407.374 C226.846,407.374 226.648,407.122 226.648,406.888 C226.648,406.636 226.846,406.51 227.044,406.42 C227.962,405.988 229.996,404.872 231.562,403.432 L227.206,403.432 C227.08,403.432 226.702,403.432 226.702,403 C226.702,402.568 227.08,402.568 227.206,402.55 L230.518,402.55 L230.518,399.796 L227.818,399.796 C227.638,399.796 227.314,399.742 227.314,399.364 C227.314,399.004 227.602,398.932 227.818,398.932 L230.518,398.932 L230.518,397.384 C230.518,397.222 230.518,396.862 230.986,396.862 C231.4,396.862 231.49,397.078 231.49,397.384 L231.49,398.932 L233.758,398.932 C233.848,398.932 234.262,398.95 234.262,399.364 C234.262,399.724 233.956,399.796 233.758,399.796 L231.49,399.796 L231.49,402.55 L232.426,402.55 C234.298,400.516 235,399.04 235.414,398.068 C235.486,397.888 235.576,397.69 235.864,397.69 C236.116,397.69 236.386,397.852 236.386,398.158 C236.386,398.392 235.396,400.534 233.632,402.55 Z M229.42,406.942 L229.42,408.706 L234.226,408.706 L234.226,406.942 C234.226,406.528 234.046,406.258 233.542,406.258 L230.104,406.258 C229.618,406.258 229.42,406.492 229.42,406.942 Z M234.226,409.516 L229.42,409.516 L229.42,411.55 C229.42,411.982 229.6,412.234 230.104,412.234 L233.542,412.234 C234.01,412.234 234.226,412 234.226,411.55 L234.226,409.516 Z M237.952,399.04 L237.952,413.044 C237.952,413.206 237.952,413.548 237.484,413.548 C237.034,413.548 236.998,413.26 236.998,413.044 L236.998,398.932 C236.998,397.87 237.34,397.474 238.456,397.474 L241.174,397.474 C241.912,397.474 242.092,397.474 242.38,397.636 C242.686,397.798 242.812,398.122 242.812,398.392 C242.812,399.328 241.678,401.452 241.102,402.514 C240.634,403.396 240.616,403.432 240.616,403.63 C240.616,403.846 240.67,403.99 241.12,404.368 C241.66,404.818 243.19,406.276 243.19,408.49 C243.19,409.192 243.028,410.272 242.182,410.884 C241.462,411.406 240.652,411.406 240.256,411.406 L239.302,411.406 C238.978,411.406 238.852,411.046 238.852,410.866 C238.852,410.362 239.194,410.362 239.41,410.362 C239.5,410.362 240.4,410.38 240.58,410.38 C241.012,410.38 241.336,410.38 241.642,410.056 C242.11,409.552 242.182,408.832 242.182,408.454 C242.182,406.672 241.012,405.556 240.454,405.016 C239.752,404.35 239.572,404.17 239.572,403.774 C239.572,403.468 239.608,403.414 240.112,402.442 C240.652,401.398 241.696,399.238 241.696,398.752 C241.696,398.356 241.372,398.338 240.976,398.338 L238.636,398.338 C238.168,398.338 237.952,398.59 237.952,399.04 Z M247.834,402.802 L249.148,402.802 C250.228,402.802 250.606,403.18 250.606,404.278 L250.606,410.974 C250.606,412.036 250.264,412.432 249.148,412.432 L247.834,412.432 C246.736,412.432 246.358,412.054 246.358,410.974 L246.358,405.304 C245.89,406.132 245.494,406.582 245.44,406.654 C245.368,406.708 245.26,406.816 245.08,406.816 C244.81,406.816 244.594,406.564 244.594,406.258 C244.594,406.024 244.702,405.916 244.81,405.79 C245.89,404.584 246.502,403.072 246.844,401.506 C247.168,400.084 247.204,398.932 247.222,398.302 L245.224,398.302 C245.098,398.302 244.702,398.302 244.702,397.834 C244.702,397.348 245.098,397.348 245.224,397.348 L250.39,397.348 C250.534,397.348 250.912,397.348 250.912,397.834 C250.912,398.302 250.534,398.302 250.39,398.302 L248.176,398.302 C248.086,399.832 247.852,401.362 247.42,402.82 C247.582,402.802 247.636,402.802 247.834,402.802 Z M249.706,411.028 L249.706,404.17 C249.706,403.846 249.562,403.666 249.202,403.666 L247.78,403.666 C247.438,403.666 247.276,403.828 247.276,404.17 L247.276,411.028 C247.276,411.352 247.42,411.532 247.78,411.532 L249.202,411.532 C249.544,411.532 249.706,411.388 249.706,411.028 Z M257.896,404.314 L254.584,404.314 L254.584,404.89 C254.584,408.49 253.612,411.1 252.784,412.45 C252.406,413.08 252.136,413.422 251.83,413.422 C251.506,413.422 251.236,413.116 251.236,412.846 C251.236,412.702 251.326,412.576 251.398,412.486 C251.956,411.712 252.028,411.604 252.28,411.136 C253.468,408.886 253.594,405.952 253.594,404.854 L253.594,404.314 L251.83,404.314 C251.704,404.314 251.308,404.314 251.308,403.864 C251.308,403.396 251.704,403.396 251.83,403.396 L253.594,403.396 L253.594,398.302 L252.082,398.302 C251.92,398.302 251.56,398.302 251.56,397.834 C251.56,397.348 251.92,397.348 252.082,397.348 L260.47,397.348 C260.65,397.348 260.992,397.366 260.992,397.834 C260.992,398.302 260.632,398.302 260.488,398.302 L258.922,398.302 L258.922,403.396 L260.722,403.396 C260.866,403.396 261.226,403.396 261.226,403.864 C261.226,404.314 260.848,404.314 260.722,404.314 L258.922,404.314 L258.922,413.026 C258.922,413.296 258.85,413.53 258.4,413.53 C257.932,413.53 257.896,413.242 257.896,413.026 L257.896,404.314 Z M254.584,403.396 L257.896,403.396 L257.896,398.302 L254.584,398.302 L254.584,403.396 Z M270.406,405.736 L273.61,405.736 C274.924,405.736 275.41,406.168 275.41,407.554 L275.41,411.586 C275.41,412.27 275.878,412.27 276.22,412.27 C276.706,412.27 277.516,412.27 277.66,412.252 C278.254,412.144 278.272,411.856 278.29,410.218 C278.29,410.02 278.308,409.66 278.686,409.66 C279.262,409.66 279.262,410.056 279.262,410.326 C279.262,412.45 278.956,412.954 278.326,413.134 C277.984,413.224 277.84,413.224 276.238,413.224 C274.87,413.224 274.438,412.72 274.438,411.406 L274.438,407.608 C274.438,406.96 274.15,406.672 273.502,406.672 L270.226,406.672 C269.866,408.238 269.344,410.074 267.274,411.586 C265.618,412.792 263.818,413.368 263.476,413.368 C263.134,413.368 262.972,413.026 262.972,412.774 C262.972,412.504 263.17,412.414 263.404,412.342 C266.95,411.262 268.516,409.552 269.236,406.672 L264.358,406.672 C264.232,406.672 263.836,406.672 263.836,406.204 C263.836,405.736 264.214,405.736 264.358,405.736 L269.434,405.736 C269.488,405.43 269.632,403.864 269.668,403.774 C269.74,403.522 269.974,403.486 270.118,403.486 C270.604,403.486 270.604,403.81 270.604,404.026 C270.604,404.53 270.496,405.25 270.406,405.736 Z M273.07,399.472 L273.07,401.884 C273.07,402.496 273.322,402.73 273.736,402.802 C273.88,402.82 275.5,402.82 276.22,402.82 C276.94,402.82 277.012,402.748 277.102,402.262 C277.192,401.776 277.228,401.65 277.552,401.65 C277.732,401.65 278.056,401.74 278.056,402.1 C278.056,402.118 277.984,403.018 277.696,403.36 C277.462,403.666 276.868,403.702 276.472,403.702 L273.682,403.702 C272.458,403.702 272.134,403.072 272.134,401.884 L272.134,399.472 L269.254,399.472 C268.912,401.326 267.832,402.424 266.554,403.216 C265.402,403.936 264.106,404.35 263.89,404.35 C263.584,404.35 263.44,404.008 263.44,403.792 C263.44,403.54 263.602,403.468 263.836,403.396 C267.13,402.406 268.066,400.57 268.264,399.472 L265.168,399.472 C264.502,399.472 264.232,399.778 264.232,400.408 L264.232,401.668 C264.232,401.83 264.214,402.19 263.728,402.19 C263.242,402.19 263.224,401.866 263.224,401.668 L263.224,400.372 C263.224,399.04 263.674,398.572 265.042,398.572 L270.46,398.572 L270.46,397.294 C270.46,397.096 270.478,396.772 270.964,396.772 C271.342,396.772 271.504,396.898 271.504,397.294 L271.504,398.572 L276.904,398.572 C278.236,398.572 278.722,399.004 278.722,400.372 L278.722,400.912 C278.722,401.128 278.686,401.434 278.236,401.434 C277.786,401.434 277.732,401.182 277.732,400.912 L277.732,400.408 C277.732,399.76 277.426,399.472 276.796,399.472 L273.07,399.472 Z M281.908,406.438 L281.908,402.55 C281.908,401.218 282.34,400.732 283.726,400.732 L286.228,400.732 C287.542,400.732 288.028,401.164 288.028,402.55 L288.028,405.178 C288.028,406.51 287.596,406.978 286.228,406.978 L282.898,406.978 C282.772,409.894 282.268,411.64 281.944,412.45 C281.674,413.152 281.512,413.314 281.26,413.314 C280.972,413.314 280.666,413.098 280.666,412.756 C280.666,412.666 280.666,412.594 280.774,412.378 C281.764,410.416 281.908,407.77 281.908,406.438 Z M282.898,402.532 L282.898,406.132 L286.138,406.132 C286.786,406.132 287.074,405.844 287.074,405.196 L287.074,402.532 C287.074,401.902 286.786,401.596 286.138,401.596 L283.834,401.596 C283.186,401.596 282.898,401.902 282.898,402.532 Z M281.26,397.528 L288.28,397.528 C288.406,397.528 288.802,397.528 288.802,397.996 C288.802,398.464 288.406,398.464 288.28,398.464 L281.26,398.464 C281.134,398.464 280.738,398.464 280.738,397.996 C280.738,397.528 281.134,397.528 281.26,397.528 Z M290.566,402.604 L296.776,402.604 C296.884,402.604 297.298,402.604 297.298,403.054 C297.298,403.522 296.902,403.522 296.776,403.522 L294.778,403.522 L294.778,413.062 C294.778,413.224 294.76,413.584 294.292,413.584 C294.004,413.584 293.752,413.53 293.752,413.062 L293.752,403.522 L290.566,403.522 L290.566,404.062 C290.566,406.564 290.224,409.066 289.126,411.298 C288.676,412.234 287.812,413.386 287.38,413.386 C287.056,413.386 286.786,413.116 286.786,412.846 C286.786,412.684 286.858,412.594 287.02,412.432 C289.396,409.894 289.558,406.348 289.558,404.062 L289.558,399.886 C289.558,398.23 289.846,398.176 291.646,397.888 C293.518,397.582 294.436,397.366 295.03,397.204 C295.156,397.168 295.876,396.952 295.948,396.952 C296.2,396.952 296.416,397.204 296.416,397.474 C296.416,397.816 296.182,397.906 295.48,398.086 C294.562,398.338 293.446,398.536 291.718,398.824 C290.62,399.004 290.566,399.13 290.566,400.066 L290.566,402.604 Z M307.126,406.024 C307.126,410.038 309.412,413.26 309.448,413.296 C309.898,413.926 309.952,413.998 309.952,414.106 C309.952,414.268 309.772,414.412 309.61,414.412 C309.34,414.412 309.106,414.304 308.602,413.602 C306.172,410.2 305.902,407.14 305.902,406.024 C305.902,404.908 306.172,401.848 308.602,398.464 C309.124,397.726 309.358,397.636 309.592,397.636 C309.808,397.636 309.952,397.798 309.952,397.942 C309.952,398.068 309.898,398.14 309.448,398.752 C309.412,398.806 307.126,402.01 307.126,406.024 Z M316.954,412.288 C313.282,412.288 311.608,409.57 311.608,406.744 C311.608,403.666 313.624,401.2 316.918,401.2 C318.142,401.2 319.168,401.578 319.618,401.83 C319.762,401.92 319.96,402.028 319.96,402.316 C319.96,402.604 319.744,402.838 319.456,402.838 C319.366,402.838 319.294,402.802 318.898,402.622 C318.502,402.424 317.818,402.208 316.954,402.208 C314.65,402.208 312.742,403.756 312.742,406.726 C312.742,409.264 314.11,411.28 317.044,411.28 C318.16,411.28 318.844,411.028 319.15,410.902 C319.294,410.848 319.492,410.758 319.636,410.758 C319.87,410.758 320.122,410.956 320.122,411.262 C320.122,411.352 320.104,411.604 319.816,411.748 C319.222,412.036 318.034,412.288 316.954,412.288 Z M324.316,406.024 C324.316,402.01 322.03,398.806 321.994,398.752 C321.544,398.14 321.49,398.068 321.49,397.942 C321.49,397.78 321.67,397.636 321.832,397.636 C322.102,397.636 322.336,397.744 322.84,398.464 C325.27,401.848 325.54,404.908 325.54,406.024 C325.54,407.14 325.27,410.2 322.84,413.602 C322.318,414.322 322.084,414.412 321.85,414.412 C321.634,414.412 321.49,414.25 321.49,414.106 C321.49,413.998 321.544,413.926 321.994,413.296 C322.03,413.26 324.316,410.038 324.316,406.024 Z M336.07,401.74 L336.07,403.27 C336.412,402.748 337.42,401.2 339.814,401.2 C342.352,401.2 344.53,403.108 344.53,406.744 C344.53,410.38 342.352,412.288 339.814,412.288 C337.546,412.288 336.502,410.866 336.07,410.218 L336.07,416.248 C336.07,416.59 335.854,416.788 335.512,416.788 C335.26,416.788 334.954,416.662 334.954,416.248 L334.954,401.74 C334.954,401.398 335.188,401.2 335.512,401.2 C335.71,401.2 336.07,401.29 336.07,401.74 Z M336.052,406.744 C336.052,410.002 337.816,411.28 339.688,411.28 C341.632,411.28 343.414,409.93 343.414,406.744 C343.414,403.468 341.542,402.208 339.688,402.208 C337.78,402.208 336.052,403.522 336.052,406.744 Z M346.438,406.744 C346.438,403.342 348.724,401.2 351.568,401.2 C354.448,401.2 356.716,403.36 356.716,406.744 C356.734,410.146 354.448,412.288 351.568,412.288 C348.724,412.288 346.438,410.164 346.438,406.744 Z M347.572,406.744 C347.572,410.02 349.714,411.28 351.568,411.28 C353.44,411.28 355.582,410.02 355.582,406.744 C355.582,403.45 353.404,402.208 351.568,402.208 C349.732,402.208 347.572,403.45 347.572,406.744 Z M361.702,402.496 L361.702,409.156 C361.702,410.434 361.756,411.28 363.574,411.28 C363.718,411.28 364.474,411.244 364.492,411.244 C364.816,411.244 364.996,411.496 364.996,411.748 C364.996,412.234 364.546,412.288 363.448,412.288 C360.766,412.288 360.586,410.794 360.586,409.12 L360.586,402.496 L358.696,402.496 C358.21,402.496 358.21,402.046 358.21,401.992 C358.21,401.704 358.372,401.488 358.696,401.488 L360.586,401.488 L360.586,398.752 C360.586,398.338 360.892,398.194 361.126,398.194 C361.486,398.194 361.702,398.392 361.702,398.752 L361.702,401.488 L364.69,401.488 C365.104,401.488 365.194,401.83 365.194,401.992 C365.194,402.298 365.014,402.496 364.69,402.496 L361.702,402.496 Z M375.13,405.124 L375.13,410.11 C375.13,410.632 375.202,411.01 375.238,411.172 C375.274,411.334 375.4,411.676 375.4,411.766 C375.4,412.108 375.076,412.288 374.806,412.288 C374.086,412.288 374.014,411.028 374.014,410.182 C372.664,412.108 370.846,412.288 370.036,412.288 C367.858,412.288 366.724,410.884 366.724,409.228 C366.724,407.788 367.426,406.384 370.036,405.934 C370.504,405.844 372.628,405.574 373.042,405.466 C373.42,405.376 373.996,405.232 373.996,404.296 C373.996,402.82 372.538,402.208 370.99,402.208 C369.91,402.208 369.136,402.442 368.668,402.676 C368.326,402.838 368.236,402.874 368.11,402.874 C367.822,402.874 367.642,402.64 367.642,402.388 C367.642,402.046 367.912,401.92 368.308,401.74 C368.776,401.542 369.694,401.2 370.972,401.2 C372.304,401.2 373.708,401.596 374.5,402.586 C375.04,403.252 375.13,404.044 375.13,405.124 Z M374.014,408.58 L374.014,406.078 C373.564,406.366 373.312,406.42 371.098,406.744 C369.478,406.996 367.84,407.23 367.84,409.192 C367.84,410.02 368.218,411.28 370.126,411.28 C372.214,411.28 373.474,409.804 374.014,408.58 Z M380.746,402.496 L380.746,409.156 C380.746,410.434 380.8,411.28 382.618,411.28 C382.762,411.28 383.518,411.244 383.536,411.244 C383.86,411.244 384.04,411.496 384.04,411.748 C384.04,412.234 383.59,412.288 382.492,412.288 C379.81,412.288 379.63,410.794 379.63,409.12 L379.63,402.496 L377.74,402.496 C377.254,402.496 377.254,402.046 377.254,401.992 C377.254,401.704 377.416,401.488 377.74,401.488 L379.63,401.488 L379.63,398.752 C379.63,398.338 379.936,398.194 380.17,398.194 C380.53,398.194 380.746,398.392 380.746,398.752 L380.746,401.488 L383.734,401.488 C384.148,401.488 384.238,401.83 384.238,401.992 C384.238,402.298 384.058,402.496 383.734,402.496 L380.746,402.496 Z M385.768,406.744 C385.768,403.342 388.054,401.2 390.898,401.2 C393.778,401.2 396.046,403.36 396.046,406.744 C396.064,410.146 393.778,412.288 390.898,412.288 C388.054,412.288 385.768,410.164 385.768,406.744 Z M386.902,406.744 C386.902,410.02 389.044,411.28 390.898,411.28 C392.77,411.28 394.912,410.02 394.912,406.744 C394.912,403.45 392.734,402.208 390.898,402.208 C389.062,402.208 386.902,403.45 386.902,406.744 Z M405.964,407.698 L407.602,407.698 C408.016,407.698 408.106,408.004 408.106,408.202 C408.106,408.526 407.926,408.724 407.602,408.724 L405.964,408.724 L405.964,411.712 C405.964,412.198 405.604,412.288 405.388,412.288 C405.046,412.288 404.794,412.09 404.794,411.712 L404.794,408.724 L398.998,408.724 C398.422,408.724 397.81,408.724 397.81,408.166 C397.81,407.914 397.918,407.77 398.296,407.212 L404.47,398.284 C404.686,397.96 404.902,397.636 405.37,397.636 C405.964,397.636 405.964,398.14 405.964,398.554 L405.964,407.698 Z M399.214,407.698 L404.794,407.698 L404.794,399.58 L399.214,407.698 Z M418.294,411.748 L418.294,410.218 C417.952,410.74 416.944,412.288 414.55,412.288 C412.012,412.288 409.834,410.38 409.834,406.744 C409.834,403.108 412.012,401.2 414.55,401.2 C416.8,401.2 417.862,402.622 418.294,403.27 L418.294,397.798 C418.294,397.438 418.51,397.24 418.852,397.24 C419.104,397.24 419.41,397.384 419.41,397.798 L419.41,411.748 C419.41,412.09 419.176,412.288 418.852,412.288 C418.654,412.288 418.294,412.198 418.294,411.748 Z M418.312,406.744 C418.312,403.486 416.548,402.208 414.676,402.208 C412.732,402.208 410.95,403.558 410.95,406.744 C410.95,410.02 412.804,411.28 414.676,411.28 C416.584,411.28 418.312,409.966 418.312,406.744 Z" id="2018/04/22(Sun)-技術書典"></path>
        </g>
    </g>
</svg>