<?xml version="1.0" encoding="UTF-8"?>
<svg width="392px" height="42px" viewBox="0 0 392 42" version="1.1" xmlns="http://www.w3.org/2000/svg" xmlns:xlink="http://www.w3.org/1999/xlink">
    <!-- Generator: Sketch 49.3 (51167) - http://www.bohemiancoding.com/sketch -->
    <title>Nuxt tech book</title>
    <desc>Created with Sketch.</desc>
    <defs></defs>
    <g id="Page-1" stroke="none" stroke-width="1" fill="none" fill-rule="evenodd">
        <path d="M31.025,38.35 L31.025,2.7 C31.025,1.35 32.075,1.1 32.625,1.1 C33.575,1.1 34.275,1.7 34.275,2.7 L34.275,37.9 C34.275,39.4 34.275,41.8 31.425,41.8 C29.725,41.8 29.075,41 28.025,39.5 L3.925,4.55 L3.925,40.2 C3.925,41.55 2.825,41.8 2.325,41.8 C1.375,41.8 0.675,41.25 0.675,40.2 L0.675,5 C0.675,3.55 0.675,1.1 3.525,1.1 C5.225,1.1 5.875,1.9 6.925,3.45 L31.025,38.35 Z M42.725,28.5 L42.725,12.5 C42.725,11.25 43.725,11 44.275,11 C45.175,11 45.825,11.55 45.825,12.5 L45.825,28.15 C45.825,33.05 45.825,39 53.125,39 C57.725,39 60.025,36.15 60.875,34.85 C62.225,32.65 62.225,29.95 62.225,28.15 L62.225,12.5 C62.225,11.25 63.225,11 63.775,11 C64.675,11 65.325,11.55 65.325,12.5 L65.325,40.3 C65.325,41.4 64.475,41.8 63.775,41.8 C62.825,41.8 62.225,41.25 62.225,40.3 L62.225,36.75 C58.775,41.8 54.375,41.8 52.825,41.8 C48.025,41.8 45.225,39.4 44.075,37.3 C42.875,35.05 42.725,33 42.725,28.5 Z M71.725,39.05 L80.825,25.8 L72.375,13.55 C72.125,13.15 71.875,12.8 71.875,12.45 C71.875,11.8 72.475,11 73.425,11 C74.075,11 74.275,11.3 74.775,12.05 L82.625,23.45 L90.425,12.05 C90.925,11.3 91.125,11 91.825,11 C92.675,11 93.325,11.8 93.325,12.45 C93.325,12.7 93.225,12.95 92.825,13.55 L84.375,25.8 L93.475,39.05 C94.025,39.85 94.125,39.95 94.125,40.4 C94.125,41.35 93.075,41.8 92.525,41.8 C91.925,41.8 91.575,41.3 91.125,40.6 L82.625,28.2 L74.075,40.6 C73.625,41.3 73.275,41.8 72.675,41.8 C72.175,41.8 71.075,41.4 71.075,40.4 C71.075,39.95 71.175,39.85 71.725,39.05 Z M106.875,14.6 L106.875,33.1 C106.875,36.65 107.025,39 112.075,39 C112.475,39 114.575,38.9 114.625,38.9 C115.525,38.9 116.025,39.6 116.025,40.3 C116.025,41.65 114.775,41.8 111.725,41.8 C104.275,41.8 103.775,37.65 103.775,33 L103.775,14.6 L98.525,14.6 C97.175,14.6 97.175,13.35 97.175,13.2 C97.175,12.4 97.625,11.8 98.525,11.8 L103.775,11.8 L103.775,4.2 C103.775,3.05 104.625,2.65 105.275,2.65 C106.275,2.65 106.875,3.2 106.875,4.2 L106.875,11.8 L115.175,11.8 C116.325,11.8 116.575,12.75 116.575,13.2 C116.575,14.05 116.075,14.6 115.175,14.6 L106.875,14.6 Z M146.025,14.6 L146.025,33.1 C146.025,36.65 146.175,39 151.225,39 C151.625,39 153.725,38.9 153.775,38.9 C154.675,38.9 155.175,39.6 155.175,40.3 C155.175,41.65 153.925,41.8 150.875,41.8 C143.425,41.8 142.925,37.65 142.925,33 L142.925,14.6 L137.675,14.6 C136.325,14.6 136.325,13.35 136.325,13.2 C136.325,12.4 136.775,11.8 137.675,11.8 L142.925,11.8 L142.925,4.2 C142.925,3.05 143.775,2.65 144.425,2.65 C145.425,2.65 146.025,3.2 146.025,4.2 L146.025,11.8 L154.325,11.8 C155.475,11.8 155.725,12.75 155.725,13.2 C155.725,14.05 155.225,14.6 154.325,14.6 L146.025,14.6 Z M181.425,27.45 L163.075,27.45 C163.175,29.8 163.575,39 174.775,39 C176.925,39 179.075,38.7 181.125,37.95 C182.125,37.6 182.225,37.55 182.475,37.55 C183.125,37.55 183.875,38.1 183.875,38.95 C183.875,39.8 183.225,40.2 182.875,40.35 C181.575,40.95 178.325,41.8 174.675,41.8 C162.525,41.8 159.975,32.35 159.975,26.6 C159.975,18.1 164.825,11 173.125,11 C182.275,11 185.675,19.35 185.675,24.4 C185.675,27.45 183.625,27.45 181.425,27.45 Z M163.125,24.65 L181.425,24.65 C182.075,24.65 182.675,24.65 182.675,23.85 C182.675,21.85 180.725,13.8 173.075,13.8 C167.375,13.8 163.525,18.4 163.125,24.65 Z M205.875,41.8 C195.675,41.8 191.025,34.25 191.025,26.4 C191.025,17.85 196.625,11 205.775,11 C209.175,11 212.025,12.05 213.275,12.75 C213.675,13 214.225,13.3 214.225,14.1 C214.225,14.9 213.625,15.55 212.825,15.55 C212.575,15.55 212.375,15.45 211.275,14.95 C210.175,14.4 208.275,13.8 205.875,13.8 C199.475,13.8 194.175,18.1 194.175,26.35 C194.175,33.4 197.975,39 206.125,39 C209.225,39 211.125,38.3 211.975,37.95 C212.375,37.8 212.925,37.55 213.325,37.55 C213.975,37.55 214.675,38.1 214.675,38.95 C214.675,39.2 214.625,39.9 213.825,40.3 C212.175,41.1 208.875,41.8 205.875,41.8 Z M243.325,24.3 L243.325,40.3 C243.325,41.55 242.325,41.8 241.775,41.8 C240.875,41.8 240.225,41.25 240.225,40.3 L240.225,24.65 C240.225,19.75 240.225,13.8 232.925,13.8 C228.325,13.8 226.025,16.65 225.175,17.95 C223.825,20.15 223.825,22.85 223.825,24.65 L223.825,40.3 C223.825,41.55 222.825,41.8 222.275,41.8 C221.375,41.8 220.725,41.25 220.725,40.3 L220.725,1.55 C220.725,0.4 221.575,0 222.275,0 C223.225,0 223.825,0.55 223.825,1.55 L223.825,16.05 C227.275,11 231.675,11 233.225,11 C238.025,11 240.825,13.4 241.975,15.5 C243.175,17.75 243.325,19.8 243.325,24.3 Z M271.475,1.55 L271.475,16.75 C272.675,14.95 275.575,11 281.875,11 C288.925,11 294.975,16.3 294.975,26.4 C294.975,36.5 288.925,41.8 281.875,41.8 C275.225,41.8 272.425,37.5 271.475,36.05 L271.475,40.3 C271.475,41.25 270.875,41.8 269.925,41.8 C269.225,41.8 268.375,41.4 268.375,40.3 L268.375,1.55 C268.375,0.55 269.025,0 269.925,0 C270.475,0 271.475,0.25 271.475,1.55 Z M271.425,26.4 C271.425,35.35 276.225,39 281.525,39 C286.925,39 291.875,35.25 291.875,26.4 C291.875,17.3 286.675,13.8 281.525,13.8 C276.325,13.8 271.425,17.35 271.425,26.4 Z M300.275,26.4 C300.275,16.95 306.625,11 314.525,11 C322.525,11 328.825,17 328.825,26.4 C328.875,35.85 322.525,41.8 314.525,41.8 C306.625,41.8 300.275,35.9 300.275,26.4 Z M303.425,26.4 C303.425,35.5 309.375,39 314.525,39 C319.725,39 325.675,35.5 325.675,26.4 C325.675,17.25 319.625,13.8 314.525,13.8 C309.425,13.8 303.425,17.25 303.425,26.4 Z M334.125,26.4 C334.125,16.95 340.475,11 348.375,11 C356.375,11 362.675,17 362.675,26.4 C362.725,35.85 356.375,41.8 348.375,41.8 C340.475,41.8 334.125,35.9 334.125,26.4 Z M337.275,26.4 C337.275,35.5 343.225,39 348.375,39 C353.575,39 359.525,35.5 359.525,26.4 C359.525,17.25 353.475,13.8 348.375,13.8 C343.275,13.8 337.275,17.25 337.275,26.4 Z M372.625,23.45 L385.925,11.8 C386.775,11.05 386.875,11 387.275,11 C388.025,11 388.825,11.7 388.825,12.5 C388.825,13.1 388.275,13.55 387.925,13.85 L376.325,23.9 L390.225,38.75 C390.825,39.4 391.125,39.75 391.125,40.25 C391.125,41 390.275,41.8 389.475,41.8 C388.925,41.8 388.625,41.45 388.125,40.9 L372.625,24.1 L372.625,40.3 C372.625,41.55 371.625,41.8 371.075,41.8 C370.175,41.8 369.525,41.25 369.525,40.3 L369.525,1.55 C369.525,0.4 370.375,0 371.075,0 C372.025,0 372.625,0.55 372.625,1.55 L372.625,23.45 Z" id="Nuxt-tech-book" fill="#FFFFFF"></path>
    </g>
</svg>